<?xml version="1.0" encoding="UTF-8"?>
<svg xmlns="http://www.w3.org/2000/svg" viewBox="0 0 541.13 226.27">
  <defs>
    <style>
      .cls-1 {
        fill: #fff;
      }

      .cls-2 {
        stroke: #000;
      }

      .cls-2, .cls-3 {
        fill: none;
      }

      .cls-2, .cls-4, .cls-5, .cls-6 {
        stroke-miterlimit: 10;
      }

      .cls-7 {
        font-family: Bahnschrift, Bahnschrift;
        font-size: 36px;
        font-variation-settings: 'wght' 400, 'wdth' 100;
      }

      .cls-4 {
        fill: #d4a100;
      }

      .cls-4, .cls-5, .cls-6 {
        stroke: #231f20;
        stroke-linecap: round;
      }

      .cls-8 {
        letter-spacing: -.02em;
      }

      .cls-5 {
        fill: #ffd155;
      }

      .cls-9 {
        letter-spacing: -.01em;
      }

      .cls-6 {
        fill: #ffefaa;
      }
    </style>
  </defs>
  <g id="Layer_1" data-name="Layer 1">
    <polygon class="cls-4" points="250.83 68.2 328.27 2.85 285.18 94.57 250.83 68.2"/>
    <polygon class="cls-4" points="180.83 91.41 133.54 1.79 213.93 63.48 180.83 91.41"/>
    <polygon class="cls-6" points="257.49 97.01 334.93 31.66 291.84 123.37 257.49 97.01"/>
    <polygon class="cls-6" points="183.65 124.59 134.22 36.14 216.07 95.88 183.65 124.59"/>
    <polygon class="cls-5" points="253.37 130.8 334.6 70.23 286.08 159.18 253.37 130.8"/>
    <text class="cls-7" transform="translate(330.8 104.94)"><tspan x="0" y="0">Siege</tspan></text>
    <text class="cls-7" transform="translate(0 106.69)"><tspan class="cls-9" x="0" y="0">R</tspan><tspan x="22.94" y="0">ainb</tspan><tspan class="cls-8" x="90.83" y="0">o</tspan><tspan x="109.74" y="0">w </tspan></text>
    <polygon class="cls-5" points="188.3 158.04 133.61 72.74 218.92 127.42 188.3 158.04"/>
    <g>
      <path d="m277.71,84.58v64.68c0,10.98-19.72,19.86-44.09,19.86s-44.09-8.88-44.09-19.86V48.71c0-12.45,19.72-22.52,44.09-22.52s44.09,10.07,44.09,22.52v20.65h-37.26v-14.67h-12.5v25.54c0-3,10.94-5.43,24.46-5.43s25.3,4.37,25.3,9.78Z"/>
      <g>
        <line class="cls-2" x1="189.53" y1="48.71" x2="189.53" y2="149.26"/>
        <path class="cls-2" d="m189.53,149.26c0,10.98,19.72,19.86,44.09,19.86"/>
        <path class="cls-2" d="m277.71,149.26c0,10.98-19.72,19.86-44.09,19.86"/>
        <path class="cls-2" d="m277.71,149.26v-64.68"/>
        <path class="cls-2" d="m277.71,48.71c0-12.45-19.72-22.52-44.09-22.52"/>
        <path class="cls-2" d="m189.53,48.71c0-12.45,19.72-22.52,44.09-22.52"/>
        <path class="cls-2" d="m277.71,48.71v20.65"/>
        <path class="cls-2" d="m277.71,69.36h-37.26"/>
        <path class="cls-2" d="m240.45,69.36v-14.67"/>
        <path class="cls-2" d="m240.45,54.69h-12.5"/>
        <path class="cls-2" d="m227.95,54.69v25.54"/>
        <path class="cls-2" d="m227.95,80.23c0-3,10.94-5.43,24.46-5.43"/>
        <path class="cls-2" d="m277.71,84.58c0-5.41-11.32-9.78-25.3-9.78"/>
      </g>
    </g>
    <g>
      <polygon points="255.41 97.67 255.41 108.07 254.96 108.07 254.86 107.63 254.49 107.7 254.49 98.2 255.02 98.11 254.96 97.67 255.41 97.67"/>
      <polygon points="254.96 108.07 255.05 108.51 239.4 111.8 239.4 111.43 238.48 111.43 238.48 111.99 231.94 113.36 231.94 113 231.48 113 231.38 112.56 254.49 107.7 254.49 108.07 254.96 108.07"/>
      <polygon points="254.96 97.67 255.02 98.11 254.49 98.2 254.49 97.67 254.96 97.67"/>
      <polygon points="254.96 97.67 254.49 97.67 254.49 98.2 231.54 101.8 231.48 101.36 231.94 101.36 231.94 100.82 254.88 97.21 254.96 97.67"/>
      <polygon points="254.96 108.07 254.49 108.07 254.49 107.7 254.86 107.63 254.96 108.07"/>
      <polygon class="cls-1" points="254.49 98.2 254.49 107.7 231.38 112.56 231.48 113 231.01 113 231.01 143.97 219.39 143.97 219.39 98.92 231.01 98.92 231.01 101.36 231.48 101.36 231.54 101.8 254.49 98.2"/>
      <polygon points="239.4 111.8 239.4 124 238.95 124 238.95 123.55 238.48 123.55 238.48 111.99 239.4 111.8"/>
      <polygon points="239.4 111.43 239.4 111.8 238.48 111.99 238.48 111.43 239.4 111.43"/>
      <polygon points="238.95 124 238.95 124.46 231.94 124.46 231.94 123.55 238.48 123.55 238.48 124 238.95 124"/>
      <rect x="238.48" y="123.55" width=".47" height=".45"/>
      <polygon class="cls-1" points="238.48 111.99 238.48 123.55 231.94 123.55 231.94 120.01 236.93 118.71 236.69 117.82 231.94 119.06 231.94 113.36 238.48 111.99"/>
      <polygon points="236.69 117.82 236.93 118.71 231.94 120.01 231.94 119.06 236.69 117.82"/>
      <polygon points="231.94 124.46 231.94 144.43 231.48 144.43 231.48 143.97 231.01 143.97 231.01 113 231.48 113 231.57 113.44 231.94 113.36 231.94 119.06 231.35 119.21 231.59 120.1 231.94 120.01 231.94 123.55 231.48 123.55 231.48 124.46 231.94 124.46"/>
      <rect x="231.48" y="123.55" width=".45" height=".91"/>
      <polygon points="231.94 119.06 231.94 120.01 231.59 120.1 231.35 119.21 231.94 119.06"/>
      <polygon points="231.94 113 231.94 113.36 231.57 113.44 231.48 113 231.94 113"/>
      <polygon points="231.94 100.82 231.94 101.36 231.48 101.36 231.4 100.9 231.94 100.82"/>
      <polygon points="231.94 98.47 231.94 100.82 231.4 100.9 231.48 101.36 231.01 101.36 231.01 98.92 231.48 98.92 231.48 98.47 231.94 98.47"/>
      <polygon points="231.48 144.43 231.48 144.88 218.92 144.88 218.92 144.43 219.39 144.43 219.39 143.97 231.01 143.97 231.01 144.43 231.48 144.43"/>
      <rect x="231.01" y="143.97" width=".47" height=".45"/>
      <rect x="231.01" y="98.47" width=".47" height=".45"/>
      <polygon points="231.48 98.01 231.48 98.47 231.01 98.47 231.01 98.92 219.39 98.92 219.39 98.47 218.92 98.47 218.92 98.01 231.48 98.01"/>
      <rect x="218.92" y="143.97" width=".47" height=".45"/>
      <polygon points="219.39 98.92 219.39 143.97 218.92 143.97 218.92 144.43 218.46 144.43 218.46 98.47 218.92 98.47 218.92 98.92 219.39 98.92"/>
      <rect x="218.92" y="98.47" width=".47" height=".45"/>
    </g>
    <polygon class="cls-4" points="194.2 201.42 180.25 194.03 166.25 201.34 168.96 185.79 157.68 174.74 173.32 172.51 180.34 158.37 187.29 172.54 202.91 174.86 191.58 185.85 194.2 201.42"/>
    <polygon class="cls-4" points="245.14 225.1 229.57 217.07 214.12 225.35 216.94 208.05 204.3 195.92 221.62 193.26 229.25 177.48 237.13 193.14 254.49 195.52 242.04 207.85 245.14 225.1"/>
    <polygon class="cls-4" points="295.87 206.8 280.29 198.77 264.85 207.05 267.67 189.75 255.03 177.62 272.35 174.96 279.98 159.19 287.86 174.84 305.22 177.22 292.77 189.55 295.87 206.8"/>
  </g>
  <g id="Layer_2" data-name="Layer 2">
    <line class="cls-3" x1="168.95" y1="116.19" x2="205.66" y2="125.91"/>
  </g>
</svg>