<?xml version="1.0" standalone="no"?>
<!DOCTYPE svg PUBLIC "-//W3C//DTD SVG 20010904//EN"
 "http://www.w3.org/TR/2001/REC-SVG-20010904/DTD/svg10.dtd">
<svg version="1.0" xmlns="http://www.w3.org/2000/svg"
 width="700.000000pt" height="700.000000pt" viewBox="0 0 700.000000 700.000000"
 preserveAspectRatio="xMidYMid meet">
<metadata>
Created by potrace 1.14, written by Peter Selinger 2001-2017
</metadata>
<g transform="translate(0.000000,700.000000) scale(0.100000,-0.100000)"
fill="#000000" stroke="none">
<path d="M211 6985 c5 -13 55 -116 181 -372 56 -114 102 -210 103 -213 1 -5
38 -81 215 -445 237 -488 286 -587 347 -715 36 -74 69 -143 75 -152 10 -21 5
-23 -14 -5 -7 7 -31 26 -53 42 -22 17 -42 32 -45 35 -3 3 -36 30 -75 60 -38
30 -75 59 -81 65 -6 5 -26 21 -44 35 -35 26 -187 147 -207 165 -6 5 -30 23
-52 39 -23 17 -41 33 -41 38 0 4 -5 8 -11 8 -6 0 -34 19 -62 43 -28 23 -57 47
-65 52 -7 6 -27 22 -43 38 -16 15 -33 27 -37 27 -4 0 -20 12 -35 26 -16 14
-30 24 -32 23 -2 -2 46 -98 105 -214 60 -115 151 -293 203 -395 187 -365 218
-424 229 -437 6 -7 7 -13 3 -13 -4 0 -3 -6 3 -12 9 -12 77 -142 269 -518 44
-85 86 -166 93 -180 7 -14 18 -34 23 -45 6 -11 32 -62 58 -113 39 -76 44 -91
26 -78 -12 9 -51 36 -87 60 -36 24 -132 92 -215 149 -82 58 -197 138 -255 178
-58 40 -141 99 -186 131 -44 32 -86 58 -92 58 -5 0 -12 3 -14 8 -5 12 -116 92
-128 92 -5 0 -10 3 -10 8 0 4 -9 13 -20 20 -17 10 -20 10 -20 -2 0 -8 6 -21
13 -28 7 -7 16 -21 20 -31 4 -10 63 -113 132 -228 69 -115 125 -213 125 -218
0 -5 3 -11 8 -13 4 -1 14 -15 22 -30 26 -47 152 -261 179 -303 14 -22 26 -46
27 -54 2 -8 7 -17 12 -20 5 -3 33 -46 61 -96 29 -49 56 -97 61 -105 54 -87 90
-152 90 -160 0 -6 4 -10 9 -10 5 0 11 -8 15 -17 3 -10 15 -33 26 -52 12 -18
89 -149 172 -290 83 -141 171 -289 195 -330 25 -41 53 -88 63 -105 19 -35 144
-246 169 -288 15 -24 87 -147 122 -208 8 -14 16 -27 19 -30 6 -6 31 -51 53
-95 8 -16 23 -57 32 -90 23 -80 73 -156 155 -235 76 -74 80 -77 135 -110 22
-13 42 -27 45 -30 3 -4 58 -32 122 -64 137 -67 273 -115 453 -161 147 -37 123
-21 337 -228 144 -139 136 -116 102 -290 -2 -12 -6 -39 -9 -62 -3 -22 -11 -67
-17 -100 -6 -33 -12 -69 -13 -80 -2 -11 -6 -38 -9 -60 -4 -22 -9 -55 -12 -74
-3 -18 -8 -43 -10 -55 -2 -11 -7 -41 -10 -66 -3 -25 -9 -49 -11 -54 -5 -8 171
83 332 172 44 24 94 50 110 58 41 19 182 97 190 105 6 7 132 -56 488 -240 158
-82 177 -90 172 -69 -2 13 -7 34 -9 48 -2 14 -7 36 -10 50 -3 14 -8 43 -11 64
-3 21 -8 48 -11 60 -3 12 -6 32 -8 46 -2 14 -6 36 -9 50 -4 14 -8 39 -11 55
-4 31 -32 192 -41 235 -19 96 -37 69 189 293 187 186 211 206 265 226 34 12
87 34 118 48 32 15 60 27 63 27 12 2 188 109 220 134 63 49 151 143 183 195
18 29 32 54 33 57 0 3 6 18 12 33 7 16 12 33 12 39 0 5 7 22 15 36 43 80 175
356 175 368 0 8 5 14 10 14 6 0 10 4 10 9 0 6 41 94 91 198 218 449 255 524
309 638 158 331 212 441 220 455 6 8 13 22 16 30 4 8 40 85 82 170 41 85 102
211 135 280 33 69 60 128 59 133 -1 4 3 7 8 7 5 0 9 3 9 8 -3 12 25 72 33 72
4 0 8 5 8 11 0 5 25 62 55 125 31 64 83 173 117 242 33 70 63 132 66 137 8 13
-50 -33 -153 -121 -44 -38 -107 -91 -140 -119 -33 -27 -62 -52 -65 -55 -3 -3
-35 -30 -72 -59 -38 -30 -68 -58 -68 -63 0 -4 -6 -8 -14 -8 -8 0 -16 -4 -18
-8 -1 -5 -46 -44 -98 -88 -105 -87 -146 -122 -166 -142 -24 -23 -13 15 31 113
7 17 30 71 50 120 20 50 42 104 50 120 7 17 23 55 35 85 12 30 28 69 35 85 8
17 25 59 40 95 14 36 32 76 39 90 8 14 14 27 14 30 1 8 14 42 39 99 12 29 23
60 23 67 0 8 5 14 10 14 6 0 10 6 10 14 0 12 16 54 55 141 41 93 157 378 155
383 0 1 8 19 19 40 17 32 32 67 35 82 1 3 7 14 13 25 6 11 11 22 11 25 1 7 15
44 56 140 20 46 36 90 36 97 0 7 5 13 10 13 6 0 10 8 10 18 0 10 5 23 11 29 6
6 10 16 8 22 -4 11 -30 -12 -280 -251 -79 -75 -173 -164 -209 -198 -244 -231
-371 -352 -417 -397 -30 -29 -58 -53 -63 -53 -7 0 7 38 73 190 6 14 11 27 12
30 2 6 14 34 44 103 11 26 18 47 14 47 -3 0 1 8 10 18 8 9 16 19 15 22 0 18
16 60 23 60 5 0 8 3 7 8 -1 7 6 29 23 67 8 20 129 313 144 350 5 11 7 23 7 28
-1 4 3 7 8 7 6 0 10 6 10 13 0 7 9 32 20 55 11 22 20 45 20 50 0 5 6 22 14 38
13 25 36 78 41 94 1 3 6 16 12 30 6 14 34 81 63 150 29 69 65 157 81 195 17
39 44 104 60 145 31 76 67 157 77 174 11 19 -25 -10 -88 -70 -36 -34 -88 -84
-116 -110 -29 -27 -123 -117 -210 -200 -88 -84 -180 -172 -205 -195 -53 -50
-328 -311 -399 -379 -26 -25 -79 -75 -118 -112 -38 -38 -72 -68 -74 -68 -2 0
-5 30 -7 68 -5 104 -5 110 -13 118 -5 4 -8 14 -8 23 0 9 -13 43 -30 76 -48 98
-65 121 -156 210 -39 39 -98 89 -130 110 -32 22 -64 45 -70 51 -37 34 -372
181 -454 199 -8 2 -15 4 -15 5 0 1 -7 3 -15 5 -8 2 -58 15 -110 29 -52 13
-112 27 -134 31 -21 3 -41 7 -45 9 -3 2 -28 7 -56 10 -27 3 -61 8 -75 11 -14
3 -50 8 -80 10 -30 3 -84 8 -120 11 -183 17 -576 6 -740 -22 -19 -3 -48 -7
-65 -9 -16 -2 -43 -6 -60 -10 -16 -3 -41 -8 -55 -10 -32 -5 -199 -48 -270 -70
-30 -9 -59 -17 -65 -19 -5 -2 -23 -8 -40 -15 -16 -6 -55 -21 -85 -33 -171 -67
-353 -180 -460 -288 -99 -99 -115 -120 -154 -198 -48 -97 -59 -149 -60 -282
-1 -83 -4 -116 -12 -112 -6 4 -31 24 -55 44 -24 21 -91 77 -149 124 -58 48
-107 90 -110 93 -3 3 -27 24 -55 46 -27 21 -52 42 -55 45 -4 4 -114 95 -193
160 -10 8 -29 24 -41 35 -13 11 -45 38 -71 60 -27 22 -70 57 -95 78 -47 41
-69 59 -141 119 -24 20 -54 44 -65 55 -12 10 -36 29 -54 43 -17 13 -42 33 -54
45 -13 11 -34 29 -47 40 -55 45 -135 111 -152 125 -11 8 -25 20 -32 27 -13 12
-182 153 -219 183 -11 8 -17 11 -15 5z m3652 -1710 c0 -220 3 -282 13 -293 11
-10 84 -13 354 -13 187 0 340 -2 340 -5 0 -2 -39 -42 -87 -89 l-88 -85 -105
-1 c-58 0 -125 -2 -150 -4 -81 -4 -225 -16 -245 -21 -11 -2 -41 -6 -67 -9 -26
-2 -58 -7 -70 -10 -13 -2 -34 -7 -48 -9 -14 -3 -35 -7 -47 -10 -13 -4 -33 -8
-45 -11 -47 -10 -154 -48 -168 -60 -49 -39 -47 -58 -45 438 1 254 3 462 3 462
1 0 104 0 229 0 l227 0 -1 -280z"/>
</g>
</svg>
